<svg width="96" height="96" viewBox="0 0 96 96" fill="none" xmlns="http://www.w3.org/2000/svg" role="img" aria-labelledby="title desc">
  <title id="title">Oleeo VacancyIQ mark</title>
  <desc id="desc">A stylised O mark with Oleeo-inspired blue and coral gradients.</desc>
  <defs>
    <linearGradient id="g1" x1="10" y1="12" x2="88" y2="88" gradientUnits="userSpaceOnUse">
      <stop offset="0" stop-color="#3E63F4"/>
      <stop offset="0.52" stop-color="#6D5DF5"/>
      <stop offset="1" stop-color="#FF4B6E"/>
    </linearGradient>
    <linearGradient id="g2" x1="21" y1="18" x2="73" y2="77" gradientUnits="userSpaceOnUse">
      <stop offset="0" stop-color="#46D8FF"/>
      <stop offset="1" stop-color="#FF3366"/>
    </linearGradient>
  </defs>
  <rect x="6" y="6" width="84" height="84" rx="26" fill="#0B1644"/>
  <path d="M48 18C31.43 18 18 31.43 18 48s13.43 30 30 30 30-13.43 30-30S64.57 18 48 18Zm0 45c-8.28 0-15-6.72-15-15s6.72-15 15-15 15 6.72 15 15-6.72 15-15 15Z" fill="url(#g1)"/>
  <path d="M48 36.5c-2.49 0-4.5 2.01-4.5 4.5v14c0 2.49 2.01 4.5 4.5 4.5s4.5-2.01 4.5-4.5V41c0-2.49-2.01-4.5-4.5-4.5Z" fill="url(#g2)"/>
  <circle cx="70" cy="25" r="5" fill="#FF4B6E"/>
  <circle cx="25" cy="70" r="4" fill="#46D8FF"/>
</svg>
